<svg width="767" height="837" viewBox="0 0 767 837" fill="none" xmlns="http://www.w3.org/2000/svg">
<rect x="127" y="33" width="512" height="512" rx="256" fill="url(#paint0_linear_2033_13)"/>
<g clip-path="url(#clip0_2033_13)">
<path d="M550.265 374.586L494.633 432.982C493.423 434.251 491.96 435.262 490.334 435.953C488.708 436.645 486.954 437.001 485.182 437H221.458C220.2 437 218.969 436.64 217.917 435.965C216.865 435.289 216.037 434.328 215.535 433.198C215.034 432.069 214.88 430.82 215.094 429.607C215.307 428.393 215.878 427.266 216.736 426.366L272.41 367.97C273.617 366.705 275.075 365.695 276.696 365.005C278.317 364.313 280.065 363.955 281.833 363.952H545.542C546.8 363.952 548.031 364.312 549.084 364.987C550.135 365.663 550.962 366.625 551.466 367.754C551.967 368.884 552.12 370.132 551.907 371.346C551.693 372.56 551.122 373.686 550.265 374.586ZM494.633 256.994C493.423 255.725 491.96 254.714 490.334 254.023C488.708 253.332 486.954 252.975 485.182 252.976H221.458C220.2 252.976 218.969 253.336 217.917 254.012C216.865 254.687 216.037 255.648 215.535 256.778C215.034 257.908 214.88 259.156 215.094 260.37C215.307 261.583 215.878 262.71 216.736 263.61L272.41 322.006C273.617 323.271 275.075 324.281 276.696 324.972C278.317 325.663 280.065 326.021 281.833 326.024H545.542C546.8 326.024 548.031 325.664 549.084 324.988C550.135 324.313 550.962 323.352 551.466 322.222C551.967 321.092 552.12 319.844 551.907 318.63C551.693 317.417 551.122 316.29 550.265 315.39L494.633 256.994ZM221.458 215.048H485.182C486.954 215.048 488.708 214.692 490.334 214.001C491.96 213.31 493.423 212.299 494.633 211.03L550.265 152.634C551.122 151.734 551.693 150.607 551.907 149.393C552.12 148.18 551.967 146.931 551.466 145.802C550.962 144.672 550.135 143.711 549.084 143.035C548.031 142.36 546.8 142 545.542 142H281.833C280.065 142.003 278.317 142.361 276.696 143.052C275.075 143.743 273.617 144.753 272.41 146.018L216.751 204.414C215.893 205.313 215.322 206.438 215.109 207.651C214.895 208.863 215.047 210.11 215.547 211.24C216.047 212.369 216.872 213.33 217.922 214.006C218.972 214.683 220.201 215.045 221.458 215.048Z" fill="white"/>
</g>
<path d="M91.6545 763.796C85.5852 763.796 80.1765 762.743 75.4284 760.638C70.6803 758.491 66.9231 755.332 64.1568 751.162C61.4318 746.951 60.0693 741.707 60.0693 735.431C60.0693 730.146 61.0396 725.708 62.9801 722.116C64.9206 718.524 67.5631 715.634 70.9074 713.445C74.2517 711.257 78.0502 709.606 82.3028 708.491C86.5968 707.376 91.0972 706.592 95.804 706.138C101.337 705.559 105.796 705.023 109.181 704.527C112.567 703.991 115.023 703.206 116.551 702.174C118.079 701.142 118.843 699.614 118.843 697.591V697.219C118.843 693.297 117.604 690.262 115.127 688.115C112.691 685.968 109.223 684.895 104.722 684.895C99.9741 684.895 96.1962 685.948 93.3886 688.053C90.5811 690.118 88.7231 692.719 87.8148 695.857L63.4136 693.875C64.6523 688.095 67.0883 683.099 70.7216 678.888C74.3549 674.635 79.0411 671.373 84.7801 669.102C90.5604 666.79 97.2491 665.634 104.846 665.634C110.131 665.634 115.189 666.253 120.019 667.492C124.891 668.731 129.206 670.651 132.963 673.252C136.762 675.853 139.755 679.197 141.943 683.285C144.131 687.331 145.226 692.182 145.226 697.839V762H120.205V748.809H119.462C117.934 751.781 115.891 754.403 113.331 756.674C110.771 758.903 107.695 760.658 104.103 761.938C100.511 763.177 96.3614 763.796 91.6545 763.796ZM99.2102 745.588C103.091 745.588 106.518 744.824 109.491 743.297C112.464 741.728 114.796 739.622 116.489 736.98C118.182 734.337 119.028 731.344 119.028 727.999V717.905C118.203 718.441 117.067 718.937 115.622 719.391C114.218 719.804 112.629 720.196 110.853 720.568C109.078 720.898 107.303 721.208 105.527 721.497C103.752 721.744 102.142 721.971 100.697 722.178C97.6 722.632 94.8956 723.355 92.5835 724.345C90.2714 725.336 88.4754 726.678 87.1955 728.371C85.9155 730.023 85.2756 732.087 85.2756 734.564C85.2756 738.156 86.5761 740.902 89.1773 742.801C91.8197 744.659 95.164 745.588 99.2102 745.588ZM192.077 707.005V762H165.694V666.873H190.838V683.656H191.953C194.059 678.124 197.589 673.747 202.543 670.527C207.498 667.265 213.505 665.634 220.566 665.634C227.172 665.634 232.931 667.079 237.845 669.969C242.758 672.859 246.577 676.988 249.302 682.356C252.027 687.682 253.389 694.04 253.389 701.431V762H227.007V706.138C227.048 700.316 225.561 695.774 222.547 692.513C219.533 689.209 215.384 687.558 210.099 687.558C206.548 687.558 203.411 688.322 200.686 689.849C198.002 691.377 195.896 693.607 194.368 696.538C192.882 699.428 192.118 702.917 192.077 707.005ZM273.688 762V746.269L320.26 688.611V687.93H275.298V666.873H352.031V684.028L308.308 740.262V740.943H353.642V762H273.688ZM448.01 666.873C447.267 660.597 444.253 655.725 438.968 652.257C433.683 648.789 427.201 647.055 419.522 647.055C413.906 647.055 408.993 647.963 404.782 649.78C400.612 651.596 397.35 654.094 394.997 657.273C392.684 660.452 391.528 664.065 391.528 668.111C391.528 671.497 392.333 674.408 393.944 676.844C395.595 679.238 397.701 681.241 400.261 682.851C402.821 684.42 405.504 685.721 408.312 686.753C411.119 687.744 413.7 688.549 416.053 689.168L428.935 692.636C432.238 693.503 435.913 694.701 439.959 696.228C444.047 697.756 447.948 699.841 451.664 702.484C455.421 705.085 458.518 708.429 460.954 712.516C463.39 716.604 464.608 721.62 464.608 727.566C464.608 734.42 462.812 740.613 459.22 746.145C455.669 751.678 450.467 756.075 443.613 759.337C436.801 762.599 428.522 764.23 418.778 764.23C409.695 764.23 401.83 762.764 395.182 759.832C388.576 756.901 383.374 752.813 379.576 747.57C375.818 742.326 373.692 736.236 373.197 729.3H389.051C389.464 734.089 391.074 738.053 393.882 741.191C396.731 744.287 400.323 746.6 404.658 748.127C409.034 749.614 413.741 750.357 418.778 750.357C424.641 750.357 429.905 749.407 434.571 747.508C439.237 745.567 442.932 742.884 445.657 739.457C448.382 735.989 449.744 731.942 449.744 727.318C449.744 723.107 448.568 719.68 446.214 717.038C443.861 714.395 440.764 712.248 436.924 710.597C433.085 708.945 428.935 707.5 424.476 706.261L408.869 701.802C398.96 698.953 391.116 694.887 385.335 689.602C379.555 684.317 376.665 677.401 376.665 668.855C376.665 661.753 378.585 655.56 382.424 650.275C386.305 644.949 391.508 640.82 398.031 637.889C404.596 634.916 411.925 633.43 420.017 633.43C428.192 633.43 435.459 634.895 441.817 637.827C448.175 640.717 453.212 644.68 456.928 649.718C460.686 654.755 462.667 660.473 462.874 666.873H448.01ZM596.879 698.582C596.879 711.959 594.463 723.52 589.633 733.264C584.802 743.008 578.175 750.522 569.753 755.807C561.33 761.092 551.71 763.734 540.892 763.734C530.075 763.734 520.455 761.092 512.032 755.807C503.61 750.522 496.983 743.008 492.152 733.264C487.321 723.52 484.906 711.959 484.906 698.582C484.906 685.205 487.321 673.644 492.152 663.9C496.983 654.156 503.61 646.642 512.032 641.357C520.455 636.072 530.075 633.43 540.892 633.43C551.71 633.43 561.33 636.072 569.753 641.357C578.175 646.642 584.802 654.156 589.633 663.9C594.463 673.644 596.879 685.205 596.879 698.582ZM582.015 698.582C582.015 687.599 580.178 678.33 576.503 670.774C572.87 663.219 567.936 657.5 561.702 653.619C555.508 649.738 548.572 647.798 540.892 647.798C533.213 647.798 526.256 649.738 520.021 653.619C513.828 657.5 508.894 663.219 505.22 670.774C501.586 678.33 499.77 687.599 499.77 698.582C499.77 709.564 501.586 718.834 505.22 726.389C508.894 733.945 513.828 739.663 520.021 743.544C526.256 747.425 533.213 749.366 540.892 749.366C548.572 749.366 555.508 747.425 561.702 743.544C567.936 739.663 572.87 733.945 576.503 726.389C580.178 718.834 582.015 709.564 582.015 698.582ZM622.704 762V635.164H638.063V748.375H697.023V762H622.704Z" fill="black"/>
<defs>
<linearGradient id="paint0_linear_2033_13" x1="383" y1="33" x2="383" y2="545" gradientUnits="userSpaceOnUse">
<stop stop-color="#2400FF"/>
<stop offset="1" stop-color="#FF0000"/>
</linearGradient>
<clipPath id="clip0_2033_13">
<rect width="337" height="295" fill="white" transform="translate(215 142)"/>
</clipPath>
</defs>
</svg>
